<?xml version="1.0" encoding="UTF-8"?><svg id="b" xmlns="http://www.w3.org/2000/svg" viewBox="0 0 249.6 130.94"><g id="c"><path d="M110.06,91.56l-.14-22.97-10.94,18.43h-7.49l-10.94-17.64v22.18h-15.48v-50.4h13.97l16.42,26.86,15.99-26.86h13.97l.14,50.4h-15.48Z" fill="#295e80"/><path d="M167.08,64.99h14.76v21.31c-6.12,4.18-14.54,6.41-21.96,6.41-16.27,0-28.15-10.87-28.15-26.35s11.88-26.35,28.51-26.35c9.94,0,17.93,3.46,23.04,9.72l-10.87,9.58c-3.17-3.67-6.84-5.54-11.3-5.54-7.49,0-12.24,4.82-12.24,12.6s4.75,12.6,12.03,12.6c2.09,0,4.1-.36,6.19-1.22v-12.75Z" fill="#295e80"/><path d="M234.12,91.56l-.14-22.97-10.94,18.43h-7.49l-10.94-17.64v22.18h-15.48v-50.4h13.97l16.42,26.86,15.99-26.86h13.97l.14,50.4h-15.48Z" fill="#295e80"/><path d="M87.39,21.68c-1.92,0-3.48,1.56-3.48,3.48s1.56,3.48,3.48,3.48,3.48-1.56,3.48-3.48-1.56-3.48-3.48-3.48ZM64.89,16.88c-1.92,0-3.48,1.56-3.48,3.48s1.56,3.48,3.48,3.48,3.48-1.56,3.48-3.48-1.56-3.48-3.48-3.48ZM45.33,24.39c-1.92,0-3.48,1.56-3.48,3.48s1.56,3.48,3.48,3.48,3.48-1.56,3.48-3.48-1.56-3.48-3.48-3.48ZM30.46,39.75c-1.92,0-3.48,1.56-3.48,3.48s1.56,3.48,3.48,3.48,3.48-1.56,3.48-3.48-1.56-3.48-3.48-3.48ZM22.63,59.02c-1.92,0-3.48,1.56-3.48,3.48s1.56,3.48,3.48,3.48,3.48-1.56,3.48-3.48-1.56-3.48-3.48-3.48ZM27.43,80.64c-1.92,0-3.48,1.56-3.48,3.48s1.56,3.48,3.48,3.48,3.48-1.56,3.48-3.48-1.56-3.48-3.48-3.48ZM41.42,97.96c-1.92,0-3.48,1.56-3.48,3.48s1.56,3.48,3.48,3.48,3.48-1.56,3.48-3.48-1.56-3.48-3.48-3.48ZM60.1,105.98c-1.92,0-3.48,1.56-3.48,3.48s1.56,3.48,3.48,3.48,3.48-1.56,3.48-3.48-1.56-3.48-3.48-3.48ZM81.85,104.55c-1.92,0-3.48,1.56-3.48,3.48s1.56,3.48,3.48,3.48,3.48-1.56,3.48-3.48-1.56-3.48-3.48-3.48Z" fill="#5db3ab"/><path d="M85.98,119.03c-2.74,0-4.96,2.22-4.96,4.96s2.22,4.96,4.96,4.96,4.96-2.22,4.96-4.96-2.22-4.96-4.96-4.96ZM55.94,121.02c-2.74,0-4.96,2.22-4.96,4.96s2.22,4.96,4.96,4.96,4.96-2.22,4.96-4.96-2.22-4.96-4.96-4.96ZM28.91,108.97c-2.74,0-4.96,2.22-4.96,4.96s2.22,4.96,4.96,4.96,4.96-2.22,4.96-4.96-2.22-4.96-4.96-4.96ZM10.37,85.98c-2.74,0-4.96,2.22-4.96,4.96s2.22,4.96,4.96,4.96,4.96-2.22,4.96-4.96-2.22-4.96-4.96-4.96ZM4.96,57.03c-2.74,0-4.96,2.22-4.96,4.96s2.22,4.96,4.96,4.96,4.96-2.22,4.96-4.96-2.22-4.96-4.96-4.96ZM13.94,29.8c-2.74,0-4.96,2.22-4.96,4.96s2.22,4.96,4.96,4.96,4.96-2.22,4.96-4.96-2.22-4.96-4.96-4.96ZM34.94,9c-2.74,0-4.96,2.22-4.96,4.96s2.22,4.96,4.96,4.96,4.96-2.22,4.96-4.96-2.22-4.96-4.96-4.96ZM63.96,0c-2.74,0-4.96,2.22-4.96,4.96s2.22,4.96,4.96,4.96,4.96-2.22,4.96-4.96-2.22-4.96-4.96-4.96ZM92.96,5.71c-2.74,0-4.96,2.22-4.96,4.96s2.22,4.96,4.96,4.96,4.96-2.22,4.96-4.96-2.22-4.96-4.96-4.96Z" fill="#a4ed85"/></g></svg>