<?xml version="1.0" encoding="UTF-8"?><svg id="b" xmlns="http://www.w3.org/2000/svg" viewBox="0 0 257.54 126.96"><g id="c"><path d="M104.71,37.29c0,1.86-1.51,3.37-3.37,3.37s-3.37-1.51-3.37-3.37,1.51-3.37,3.37-3.37,3.37,1.51,3.37,3.37ZM84.74,21.02c-1.86,0-3.37,1.51-3.37,3.37s1.51,3.37,3.37,3.37,3.37-1.51,3.37-3.37-1.51-3.37-3.37-3.37ZM62.92,16.37c-1.86,0-3.37,1.51-3.37,3.37s1.51,3.37,3.37,3.37,3.37-1.51,3.37-3.37-1.51-3.37-3.37-3.37ZM43.95,23.65c-1.86,0-3.37,1.51-3.37,3.37s1.51,3.37,3.37,3.37,3.37-1.51,3.37-3.37-1.51-3.37-3.37-3.37ZM29.53,38.54c-1.86,0-3.37,1.51-3.37,3.37s1.51,3.37,3.37,3.37,3.37-1.51,3.37-3.37-1.51-3.37-3.37-3.37ZM21.95,57.23c-1.86,0-3.37,1.51-3.37,3.37s1.51,3.37,3.37,3.37,3.37-1.51,3.37-3.37-1.51-3.37-3.37-3.37ZM26.59,78.19c-1.86,0-3.37,1.51-3.37,3.37s1.51,3.37,3.37,3.37,3.37-1.51,3.37-3.37-1.51-3.37-3.37-3.37ZM40.16,94.98c-1.86,0-3.37,1.51-3.37,3.37s1.51,3.37,3.37,3.37,3.37-1.51,3.37-3.37-1.51-3.37-3.37-3.37ZM58.28,102.76c-1.86,0-3.37,1.51-3.37,3.37s1.51,3.37,3.37,3.37,3.37-1.51,3.37-3.37-1.51-3.37-3.37-3.37ZM79.36,101.38c-1.86,0-3.37,1.51-3.37,3.37s1.51,3.37,3.37,3.37,3.37-1.51,3.37-3.37-1.51-3.37-3.37-3.37ZM98.21,91.55c-1.86,0-3.37,1.51-3.37,3.37s1.51,3.37,3.37,3.37,3.37-1.51,3.37-3.37-1.51-3.37-3.37-3.37Z" fill="#5db3ab"/><path d="M113.41,105.65c0,2.66-2.15,4.81-4.81,4.81s-4.81-2.15-4.81-4.81,2.15-4.81,4.81-4.81,4.81,2.15,4.81,4.81ZM83.36,115.41c-2.66,0-4.81,2.15-4.81,4.81s2.15,4.81,4.81,4.81,4.81-2.15,4.81-4.81-2.15-4.81-4.81-4.81ZM54.24,117.34c-2.66,0-4.81,2.15-4.81,4.81s2.15,4.81,4.81,4.81,4.81-2.15,4.81-4.81-2.15-4.81-4.81-4.81ZM28.03,105.65c-2.66,0-4.81,2.15-4.81,4.81s2.15,4.81,4.81,4.81,4.81-2.15,4.81-4.81-2.15-4.81-4.81-4.81ZM10.06,83.36c-2.66,0-4.81,2.15-4.81,4.81s2.15,4.81,4.81,4.81,4.81-2.15,4.81-4.81-2.15-4.81-4.81-4.81ZM4.81,55.3c-2.66,0-4.81,2.15-4.81,4.81s2.15,4.81,4.81,4.81,4.81-2.15,4.81-4.81-2.15-4.81-4.81-4.81ZM13.52,28.9c-2.66,0-4.81,2.15-4.81,4.81s2.15,4.81,4.81,4.81,4.81-2.15,4.81-4.81-2.15-4.81-4.81-4.81ZM33.88,8.73c-2.66,0-4.81,2.15-4.81,4.81s2.15,4.81,4.81,4.81,4.81-2.15,4.81-4.81-2.15-4.81-4.81-4.81ZM62.02,0c-2.66,0-4.81,2.15-4.81,4.81s2.15,4.81,4.81,4.81,4.81-2.15,4.81-4.81-2.15-4.81-4.81-4.81ZM90.13,5.53c-2.66,0-4.81,2.15-4.81,4.81s2.15,4.81,4.81,4.81,4.81-2.15,4.81-4.81-2.15-4.81-4.81-4.81ZM113.39,22.46c-2.66,0-4.81,2.15-4.81,4.81s2.15,4.81,4.81,4.81,4.81-2.15,4.81-4.81-2.15-4.81-4.81-4.81Z" fill="#a4ed85"/><path d="M159.61,42.93v56.49c0,.73-.59,1.33-1.33,1.33h-9.44c-.73,0-1.33-.59-1.33-1.33v-31.13c0-.37-.49-.49-.66-.16l-4.36,11.04c-.17.4-.74.4-.91,0l-4.37-11.04c-.17-.33-.66-.21-.66.16v31.13c0,.73-.59,1.33-1.33,1.33h-9.44c-.73,0-1.33-.59-1.33-1.33v-56.49c0-.73.59-1.33,1.33-1.33h9.87c.54,0,1.03.33,1.23.83l4.57,11.65c.21.53.97.53,1.18,0l4.56-11.65c.2-.5.69-.83,1.23-.83h9.87c.73,0,1.33.59,1.33,1.33ZM256.21,41.6h-9.87c-.54,0-1.03.33-1.23.83l-4.56,11.65c-.21.53-.97.53-1.18,0l-4.57-11.65c-.2-.5-.69-.83-1.23-.83h-9.87c-.73,0-1.33.59-1.33,1.33v56.49c0,.73.59,1.33,1.33,1.33h9.44c.73,0,1.33-.59,1.33-1.33v-31.13c0-.37.49-.49.66-.16l4.37,11.04c.17.4.74.4.91,0l4.36-11.04c.17-.33.66-.21.66.16v31.13c0,.73.59,1.33,1.33,1.33h9.44c.73,0,1.33-.59,1.33-1.33v-56.49c0-.73-.59-1.33-1.33-1.33ZM208.36,59v-2.83c0-8.05-6.52-14.57-14.57-14.57h-4.68c-8.62,0-15.61,6.99-15.61,15.61v29.17c0,8.62,6.99,15.61,15.61,15.61h4.68c8.62,0,15.61-6.99,15.61-15.61v-13.74c0-1.05-.85-1.9-1.9-1.9h-14.77c-1.01,0-1.82.82-1.82,1.82v6.06c0,1.01.82,1.82,1.82,1.82h5.54v3.38c0,3.54-2.87,6.4-6.4,6.4h-1.33c-3.54,0-6.41-2.87-6.4-6.41.02-6.81,0-17.95,0-24.76,0-3.54,2.87-6.39,6.4-6.39h.86c3.54,0,6.41,2.87,6.41,6.41v.06c0,.52.4.92.9.92h8.59c.58,0,1.06-.47,1.06-1.06Z" fill="#295e80"/></g></svg>